<svg xmlns="http://www.w3.org/2000/svg" version="1.1" xmlns:xlink="http://www.w3.org/1999/xlink" xmlns:svgjs="http://svgjs.dev/svgjs" width="1440" height="560" preserveAspectRatio="none" viewBox="0 0 1440 560"><g mask="url(&quot;#SvgjsMask1074&quot;)" fill="none"><rect width="1440" height="560" x="0" y="0" fill="rgba(0, 21, 58, 1)"></rect><path d="M298.675,104.217C315.585,103.904,331.124,94.951,339.508,80.262C347.821,65.698,347.722,47.732,339.14,33.325C330.753,19.245,315.064,11.654,298.675,11.714C282.395,11.773,267.306,19.788,258.718,33.618C249.608,48.289,246.634,66.793,255.14,81.822C263.755,97.044,281.187,104.541,298.675,104.217" fill="rgba(28, 83, 142, 0.4)" class="triangle-float3"></path><path d="M259.0293696203101 295.6204602772413L361.21156615211464 309.9812314695449 375.57233734441826 207.79903493774037 273.3901408126137 193.43826374543676z" fill="rgba(28, 83, 142, 0.4)" class="triangle-float3"></path><path d="M300.17171703529056 493.85812450697074L283.466816912387 588.5963208725233 433.9265615221676 566.2845728741023z" fill="rgba(28, 83, 142, 0.4)" class="triangle-float1"></path><path d="M896.39 457.88 a124.07 124.07 0 1 0 248.14 0 a124.07 124.07 0 1 0 -248.14 0z" fill="rgba(28, 83, 142, 0.4)" class="triangle-float2"></path><path d="M-125.83 188.29 a170.13 170.13 0 1 0 340.26 0 a170.13 170.13 0 1 0 -340.26 0z" fill="rgba(28, 83, 142, 0.4)" class="triangle-float3"></path><path d="M1098.135,132.937C1122.577,131.924,1145.987,122.577,1159.223,102.004C1173.662,79.563,1179.389,50.636,1165.901,27.611C1152.527,4.78,1124.594,-2.465,1098.135,-2.276C1072.074,-2.089,1046.121,6.645,1032.029,28.569C1016.765,52.316,1012.495,83.611,1027.6,107.459C1041.937,130.094,1071.365,134.046,1098.135,132.937" fill="rgba(28, 83, 142, 0.4)" class="triangle-float2"></path><path d="M1449.0020411529829 320.9881894552791L1539.127199433773 262.46022732960637 1406.272677104869 156.53647097125724z" fill="rgba(28, 83, 142, 0.4)" class="triangle-float2"></path><path d="M649.568,467.276C694.534,463.477,736.972,444.282,759.59,405.233C782.262,366.091,779.757,318.731,758.84,278.624C736.034,234.894,698.687,198.7,649.568,194.266C592.029,189.072,530.758,206.465,499.796,255.241C466.906,307.055,466.423,376.881,501.83,427.008C533.393,471.692,595.055,471.881,649.568,467.276" fill="rgba(28, 83, 142, 0.4)" class="triangle-float2"></path><path d="M1234.5837226026435 255.62453839600502L1342.2244252492092 216.44652663715578 1303.04641349036 108.80582399059008 1195.4057108437944 147.98383574943932z" fill="rgba(28, 83, 142, 0.4)" class="triangle-float1"></path><path d="M-136.9 256.55 a179.59 179.59 0 1 0 359.18 0 a179.59 179.59 0 1 0 -359.18 0z" fill="rgba(28, 83, 142, 0.4)" class="triangle-float1"></path><path d="M990.8901214546634 602.8966717041224L1027.200142789643 513.026215250649 937.3296863361696 476.71619391566935 901.01966500119 566.5866503691427z" fill="rgba(28, 83, 142, 0.4)" class="triangle-float3"></path><path d="M845.5451406266423 70.13347895748262L786.6857013800844 151.14654698551618 867.6987694081181 210.00598623207398 926.5582086546758 128.9929182040404z" fill="rgba(28, 83, 142, 0.4)" class="triangle-float2"></path><path d="M710.6787203012548 631.8684358447933L817.532078842679 509.1840436142647 678.4204099272364 479.61494558141976z" fill="rgba(28, 83, 142, 0.4)" class="triangle-float3"></path><path d="M530.8305501201928-58.4858082909926L475.9038159819132 70.57136555856954 597.8409303030181 57.755258407346446z" fill="rgba(28, 83, 142, 0.4)" class="triangle-float2"></path></g><defs><mask id="SvgjsMask1074"><rect width="1440" height="560" fill="#ffffff"></rect></mask><style>
                @keyframes float1 {
                    0%{transform: translate(0, 0)}
                    50%{transform: translate(-10px, 0)}
                    100%{transform: translate(0, 0)}
                }

                .triangle-float1 {
                    animation: float1 5s infinite;
                }

                @keyframes float2 {
                    0%{transform: translate(0, 0)}
                    50%{transform: translate(-5px, -5px)}
                    100%{transform: translate(0, 0)}
                }

                .triangle-float2 {
                    animation: float2 4s infinite;
                }

                @keyframes float3 {
                    0%{transform: translate(0, 0)}
                    50%{transform: translate(0, -10px)}
                    100%{transform: translate(0, 0)}
                }

                .triangle-float3 {
                    animation: float3 6s infinite;
                }
            </style></defs></svg>