<?xml version="1.0" encoding="UTF-8"?>
<svg xmlns="http://www.w3.org/2000/svg" xmlns:xlink="http://www.w3.org/1999/xlink" width="150px" height="150px" viewBox="0 0 32 32" version="1.1">
<g id="surface1">
<path style=" stroke:none;fill-rule:nonzero;fill:rgb(3.529412%,18.039216%,12.54902%);fill-opacity:1;" d="M 14.863281 0 L 20.09375 0 L 20.09375 24.21875 C 17.410156 24.730469 15.441406 24.933594 13.300781 24.933594 C 6.910156 24.933594 3.582031 22.046875 3.582031 16.507812 C 3.582031 11.171875 7.117188 7.707031 12.585938 7.707031 C 13.433594 7.707031 14.082031 7.777344 14.863281 7.980469 Z M 14.863281 12.191406 C 14.25 11.988281 13.742188 11.917969 13.09375 11.917969 C 10.445312 11.917969 8.914062 13.550781 8.914062 16.40625 C 8.914062 19.191406 10.378906 20.71875 13.0625 20.71875 C 13.640625 20.71875 14.113281 20.683594 14.863281 20.585938 Z M 14.863281 12.191406 "/>
<path style=" stroke:none;fill-rule:nonzero;fill:rgb(3.529412%,18.039216%,12.54902%);fill-opacity:1;" d="M 28.417969 8.082031 L 28.417969 20.210938 C 28.417969 24.390625 28.113281 26.394531 27.195312 28.125 C 26.34375 29.792969 25.222656 30.84375 22.914062 32 L 18.054688 29.691406 C 20.367188 28.601562 21.488281 27.652344 22.199219 26.191406 C 22.949219 24.695312 23.1875 22.960938 23.1875 18.410156 L 23.1875 8.082031 Z M 23.183594 0.0273438 L 28.417969 0.0273438 L 28.417969 5.394531 L 23.183594 5.394531 Z M 23.183594 0.0273438 "/>
</g>
</svg>
