<?xml version="1.0" encoding="UTF-8"?>
<svg xmlns="http://www.w3.org/2000/svg" xmlns:xlink="http://www.w3.org/1999/xlink" width="60px" height="60px" viewBox="0 0 60 60" version="1.1">
<g id="surface1">
<path style=" stroke:none;fill-rule:nonzero;fill:rgb(3.529412%,18.039216%,12.54902%);fill-opacity:1;" d="M 27.867188 0 L 37.675781 0 L 37.675781 45.410156 C 32.644531 46.371094 28.953125 46.753906 24.9375 46.753906 C 12.960938 46.753906 6.714844 41.335938 6.714844 30.957031 C 6.714844 20.949219 13.34375 14.449219 23.601562 14.449219 C 25.191406 14.449219 26.402344 14.585938 27.867188 14.964844 Z M 27.867188 22.855469 C 26.800781 22.496094 25.679688 22.324219 24.550781 22.347656 C 19.582031 22.347656 16.710938 25.40625 16.710938 30.761719 C 16.710938 35.980469 19.460938 38.847656 24.492188 38.847656 C 25.578125 38.847656 26.460938 38.78125 27.867188 38.601562 Z M 27.867188 22.855469 "/>
<path style=" stroke:none;fill-rule:nonzero;fill:rgb(3.529412%,18.039216%,12.54902%);fill-opacity:1;" d="M 53.285156 15.152344 L 53.285156 37.898438 C 53.285156 45.730469 52.710938 49.488281 50.988281 52.734375 C 49.394531 55.863281 47.289062 57.832031 42.96875 60 L 33.855469 55.667969 C 38.183594 53.625 40.289062 51.847656 41.625 49.105469 C 43.03125 46.300781 43.476562 43.054688 43.476562 34.523438 L 43.476562 15.152344 Z M 43.46875 0.0507812 L 53.285156 0.0507812 L 53.285156 10.113281 L 43.46875 10.113281 Z M 43.46875 0.0507812 "/>
</g>
</svg>
