<?xml version="1.0" encoding="UTF-8"?>
<svg xmlns="http://www.w3.org/2000/svg" xmlns:xlink="http://www.w3.org/1999/xlink" width="40px" height="40px" viewBox="0 0 40 40" version="1.1">
<g id="surface1">
<path style=" stroke:none;fill-rule:nonzero;fill:rgb(3.529412%,18.039216%,12.54902%);fill-opacity:1;" d="M 18.578125 0 L 25.117188 0 L 25.117188 30.273438 C 21.761719 30.914062 19.300781 31.167969 16.625 31.167969 C 8.640625 31.167969 4.476562 27.558594 4.476562 20.636719 C 4.476562 13.964844 8.894531 9.632812 15.734375 9.632812 C 16.792969 9.632812 17.601562 9.722656 18.578125 9.976562 Z M 18.578125 15.238281 C 17.867188 14.996094 17.117188 14.882812 16.367188 14.898438 C 13.054688 14.898438 11.140625 16.9375 11.140625 20.507812 C 11.140625 23.988281 12.972656 25.898438 16.328125 25.898438 C 17.050781 25.898438 17.640625 25.855469 18.578125 25.734375 Z M 18.578125 15.238281 "/>
<path style=" stroke:none;fill-rule:nonzero;fill:rgb(3.529412%,18.039216%,12.54902%);fill-opacity:1;" d="M 35.523438 10.101562 L 35.523438 25.265625 C 35.523438 30.488281 35.140625 32.992188 33.992188 35.15625 C 32.929688 37.242188 31.527344 38.554688 28.644531 40 L 22.570312 37.113281 C 25.457031 35.75 26.859375 34.566406 27.75 32.738281 C 28.6875 30.867188 28.984375 28.703125 28.984375 23.015625 L 28.984375 10.101562 Z M 28.980469 0.0351562 L 35.523438 0.0351562 L 35.523438 6.742188 L 28.980469 6.742188 Z M 28.980469 0.0351562 "/>
</g>
</svg>
