<svg xmlns="http://www.w3.org/2000/svg" version="1.1" xmlns:xlink="http://www.w3.org/1999/xlink" xmlns:svgjs="http://svgjs.dev/svgjs" width="1440" height="560" preserveAspectRatio="none" viewBox="0 0 1440 560"><g mask="url(&quot;#SvgjsMask1010&quot;)" fill="none"><path d="M40.06 158.74L105.01 196.24L105.01 271.24L40.06 308.74L-24.89 271.24L-24.89 196.24zM299.88 -66.26L364.83 -28.76L364.83 46.24L299.88 83.74L234.92 46.24L234.92 -28.76zM299.88 158.74L364.83 196.24L364.83 271.24L299.88 308.74L234.92 271.24L234.92 196.24zM364.83 271.24L429.78 308.74L429.78 383.74L364.83 421.24L299.88 383.74L299.88 308.74zM689.6 -66.26L754.55 -28.76L754.55 46.24L689.6 83.74L624.64 46.24L624.64 -28.76zM754.55 46.24L819.51 83.74L819.51 158.74L754.55 196.24L689.6 158.74L689.6 83.74zM754.55 271.24L819.51 308.74L819.51 383.74L754.55 421.24L689.6 383.74L689.6 308.74zM689.6 383.74L754.55 421.24L754.55 496.24L689.6 533.74L624.64 496.24L624.64 421.24zM754.55 496.24L819.51 533.74L819.51 608.74L754.55 646.24L689.6 608.74L689.6 533.74zM819.5 383.74L884.46 421.24L884.46 496.24L819.5 533.74L754.55 496.24L754.55 421.24zM884.46 496.24L949.41 533.74L949.41 608.74L884.46 646.24L819.5 608.74L819.5 533.74zM1014.37 46.24L1079.32 83.74L1079.32 158.74L1014.37 196.24L949.41 158.74L949.41 83.74zM1144.27 496.24L1209.23 533.74L1209.23 608.74L1144.27 646.24L1079.32 608.74L1079.32 533.74zM1209.23 158.74L1274.18 196.24L1274.18 271.24L1209.23 308.74L1144.27 271.24L1144.27 196.24zM1274.18 496.24L1339.13 533.74L1339.13 608.74L1274.18 646.24L1209.23 608.74L1209.23 533.74zM1404.09 46.24L1469.04 83.74L1469.04 158.74L1404.09 196.24L1339.13 158.74L1339.13 83.74zM1404.09 271.24L1469.04 308.74L1469.04 383.74L1404.09 421.24L1339.13 383.74L1339.13 308.74zM1404.09 496.24L1469.04 533.74L1469.04 608.74L1404.09 646.24L1339.13 608.74L1339.13 533.74zM1534 496.24L1598.95 533.74L1598.95 608.74L1534 646.24L1469.04 608.74L1469.04 533.74z" stroke="rgba(8, 34, 60, 0.51)" stroke-width="2"></path><path d="M32.56 158.74 a7.5 7.5 0 1 0 15 0 a7.5 7.5 0 1 0 -15 0zM97.51 196.24 a7.5 7.5 0 1 0 15 0 a7.5 7.5 0 1 0 -15 0zM97.51 271.24 a7.5 7.5 0 1 0 15 0 a7.5 7.5 0 1 0 -15 0zM32.56 308.74 a7.5 7.5 0 1 0 15 0 a7.5 7.5 0 1 0 -15 0zM-32.39 271.24 a7.5 7.5 0 1 0 15 0 a7.5 7.5 0 1 0 -15 0zM-32.39 196.24 a7.5 7.5 0 1 0 15 0 a7.5 7.5 0 1 0 -15 0zM292.38 -66.26 a7.5 7.5 0 1 0 15 0 a7.5 7.5 0 1 0 -15 0zM357.33 -28.76 a7.5 7.5 0 1 0 15 0 a7.5 7.5 0 1 0 -15 0zM357.33 46.24 a7.5 7.5 0 1 0 15 0 a7.5 7.5 0 1 0 -15 0zM292.38 83.74 a7.5 7.5 0 1 0 15 0 a7.5 7.5 0 1 0 -15 0zM227.42 46.24 a7.5 7.5 0 1 0 15 0 a7.5 7.5 0 1 0 -15 0zM227.42 -28.76 a7.5 7.5 0 1 0 15 0 a7.5 7.5 0 1 0 -15 0zM292.38 158.74 a7.5 7.5 0 1 0 15 0 a7.5 7.5 0 1 0 -15 0zM357.33 196.24 a7.5 7.5 0 1 0 15 0 a7.5 7.5 0 1 0 -15 0zM357.33 271.24 a7.5 7.5 0 1 0 15 0 a7.5 7.5 0 1 0 -15 0zM292.38 308.74 a7.5 7.5 0 1 0 15 0 a7.5 7.5 0 1 0 -15 0zM227.42 271.24 a7.5 7.5 0 1 0 15 0 a7.5 7.5 0 1 0 -15 0zM227.42 196.24 a7.5 7.5 0 1 0 15 0 a7.5 7.5 0 1 0 -15 0zM422.28 308.74 a7.5 7.5 0 1 0 15 0 a7.5 7.5 0 1 0 -15 0zM422.28 383.74 a7.5 7.5 0 1 0 15 0 a7.5 7.5 0 1 0 -15 0zM357.33 421.24 a7.5 7.5 0 1 0 15 0 a7.5 7.5 0 1 0 -15 0zM292.38 383.74 a7.5 7.5 0 1 0 15 0 a7.5 7.5 0 1 0 -15 0zM682.1 -66.26 a7.5 7.5 0 1 0 15 0 a7.5 7.5 0 1 0 -15 0zM747.05 -28.76 a7.5 7.5 0 1 0 15 0 a7.5 7.5 0 1 0 -15 0zM747.05 46.24 a7.5 7.5 0 1 0 15 0 a7.5 7.5 0 1 0 -15 0zM682.1 83.74 a7.5 7.5 0 1 0 15 0 a7.5 7.5 0 1 0 -15 0zM617.14 46.24 a7.5 7.5 0 1 0 15 0 a7.5 7.5 0 1 0 -15 0zM617.14 -28.76 a7.5 7.5 0 1 0 15 0 a7.5 7.5 0 1 0 -15 0zM812.01 83.74 a7.5 7.5 0 1 0 15 0 a7.5 7.5 0 1 0 -15 0zM812.01 158.74 a7.5 7.5 0 1 0 15 0 a7.5 7.5 0 1 0 -15 0zM747.05 196.24 a7.5 7.5 0 1 0 15 0 a7.5 7.5 0 1 0 -15 0zM682.1 158.74 a7.5 7.5 0 1 0 15 0 a7.5 7.5 0 1 0 -15 0zM747.05 271.24 a7.5 7.5 0 1 0 15 0 a7.5 7.5 0 1 0 -15 0zM812.01 308.74 a7.5 7.5 0 1 0 15 0 a7.5 7.5 0 1 0 -15 0zM812.01 383.74 a7.5 7.5 0 1 0 15 0 a7.5 7.5 0 1 0 -15 0zM747.05 421.24 a7.5 7.5 0 1 0 15 0 a7.5 7.5 0 1 0 -15 0zM682.1 383.74 a7.5 7.5 0 1 0 15 0 a7.5 7.5 0 1 0 -15 0zM682.1 308.74 a7.5 7.5 0 1 0 15 0 a7.5 7.5 0 1 0 -15 0zM747.05 496.24 a7.5 7.5 0 1 0 15 0 a7.5 7.5 0 1 0 -15 0zM682.1 533.74 a7.5 7.5 0 1 0 15 0 a7.5 7.5 0 1 0 -15 0zM617.14 496.24 a7.5 7.5 0 1 0 15 0 a7.5 7.5 0 1 0 -15 0zM617.14 421.24 a7.5 7.5 0 1 0 15 0 a7.5 7.5 0 1 0 -15 0zM812.01 533.74 a7.5 7.5 0 1 0 15 0 a7.5 7.5 0 1 0 -15 0zM812.01 608.74 a7.5 7.5 0 1 0 15 0 a7.5 7.5 0 1 0 -15 0zM747.05 646.24 a7.5 7.5 0 1 0 15 0 a7.5 7.5 0 1 0 -15 0zM682.1 608.74 a7.5 7.5 0 1 0 15 0 a7.5 7.5 0 1 0 -15 0zM812 383.74 a7.5 7.5 0 1 0 15 0 a7.5 7.5 0 1 0 -15 0zM876.96 421.24 a7.5 7.5 0 1 0 15 0 a7.5 7.5 0 1 0 -15 0zM876.96 496.24 a7.5 7.5 0 1 0 15 0 a7.5 7.5 0 1 0 -15 0zM812 533.74 a7.5 7.5 0 1 0 15 0 a7.5 7.5 0 1 0 -15 0zM941.91 533.74 a7.5 7.5 0 1 0 15 0 a7.5 7.5 0 1 0 -15 0zM941.91 608.74 a7.5 7.5 0 1 0 15 0 a7.5 7.5 0 1 0 -15 0zM876.96 646.24 a7.5 7.5 0 1 0 15 0 a7.5 7.5 0 1 0 -15 0zM812 608.74 a7.5 7.5 0 1 0 15 0 a7.5 7.5 0 1 0 -15 0zM1006.87 46.24 a7.5 7.5 0 1 0 15 0 a7.5 7.5 0 1 0 -15 0zM1071.82 83.74 a7.5 7.5 0 1 0 15 0 a7.5 7.5 0 1 0 -15 0zM1071.82 158.74 a7.5 7.5 0 1 0 15 0 a7.5 7.5 0 1 0 -15 0zM1006.87 196.24 a7.5 7.5 0 1 0 15 0 a7.5 7.5 0 1 0 -15 0zM941.91 158.74 a7.5 7.5 0 1 0 15 0 a7.5 7.5 0 1 0 -15 0zM941.91 83.74 a7.5 7.5 0 1 0 15 0 a7.5 7.5 0 1 0 -15 0zM1136.77 496.24 a7.5 7.5 0 1 0 15 0 a7.5 7.5 0 1 0 -15 0zM1201.73 533.74 a7.5 7.5 0 1 0 15 0 a7.5 7.5 0 1 0 -15 0zM1201.73 608.74 a7.5 7.5 0 1 0 15 0 a7.5 7.5 0 1 0 -15 0zM1136.77 646.24 a7.5 7.5 0 1 0 15 0 a7.5 7.5 0 1 0 -15 0zM1071.82 608.74 a7.5 7.5 0 1 0 15 0 a7.5 7.5 0 1 0 -15 0zM1071.82 533.74 a7.5 7.5 0 1 0 15 0 a7.5 7.5 0 1 0 -15 0zM1201.73 158.74 a7.5 7.5 0 1 0 15 0 a7.5 7.5 0 1 0 -15 0zM1266.68 196.24 a7.5 7.5 0 1 0 15 0 a7.5 7.5 0 1 0 -15 0zM1266.68 271.24 a7.5 7.5 0 1 0 15 0 a7.5 7.5 0 1 0 -15 0zM1201.73 308.74 a7.5 7.5 0 1 0 15 0 a7.5 7.5 0 1 0 -15 0zM1136.77 271.24 a7.5 7.5 0 1 0 15 0 a7.5 7.5 0 1 0 -15 0zM1136.77 196.24 a7.5 7.5 0 1 0 15 0 a7.5 7.5 0 1 0 -15 0zM1266.68 496.24 a7.5 7.5 0 1 0 15 0 a7.5 7.5 0 1 0 -15 0zM1331.63 533.74 a7.5 7.5 0 1 0 15 0 a7.5 7.5 0 1 0 -15 0zM1331.63 608.74 a7.5 7.5 0 1 0 15 0 a7.5 7.5 0 1 0 -15 0zM1266.68 646.24 a7.5 7.5 0 1 0 15 0 a7.5 7.5 0 1 0 -15 0zM1396.59 46.24 a7.5 7.5 0 1 0 15 0 a7.5 7.5 0 1 0 -15 0zM1461.54 83.74 a7.5 7.5 0 1 0 15 0 a7.5 7.5 0 1 0 -15 0zM1461.54 158.74 a7.5 7.5 0 1 0 15 0 a7.5 7.5 0 1 0 -15 0zM1396.59 196.24 a7.5 7.5 0 1 0 15 0 a7.5 7.5 0 1 0 -15 0zM1331.63 158.74 a7.5 7.5 0 1 0 15 0 a7.5 7.5 0 1 0 -15 0zM1331.63 83.74 a7.5 7.5 0 1 0 15 0 a7.5 7.5 0 1 0 -15 0zM1396.59 271.24 a7.5 7.5 0 1 0 15 0 a7.5 7.5 0 1 0 -15 0zM1461.54 308.74 a7.5 7.5 0 1 0 15 0 a7.5 7.5 0 1 0 -15 0zM1461.54 383.74 a7.5 7.5 0 1 0 15 0 a7.5 7.5 0 1 0 -15 0zM1396.59 421.24 a7.5 7.5 0 1 0 15 0 a7.5 7.5 0 1 0 -15 0zM1331.63 383.74 a7.5 7.5 0 1 0 15 0 a7.5 7.5 0 1 0 -15 0zM1331.63 308.74 a7.5 7.5 0 1 0 15 0 a7.5 7.5 0 1 0 -15 0zM1396.59 496.24 a7.5 7.5 0 1 0 15 0 a7.5 7.5 0 1 0 -15 0zM1461.54 533.74 a7.5 7.5 0 1 0 15 0 a7.5 7.5 0 1 0 -15 0zM1461.54 608.74 a7.5 7.5 0 1 0 15 0 a7.5 7.5 0 1 0 -15 0zM1396.59 646.24 a7.5 7.5 0 1 0 15 0 a7.5 7.5 0 1 0 -15 0zM1526.5 496.24 a7.5 7.5 0 1 0 15 0 a7.5 7.5 0 1 0 -15 0zM1591.45 533.74 a7.5 7.5 0 1 0 15 0 a7.5 7.5 0 1 0 -15 0zM1591.45 608.74 a7.5 7.5 0 1 0 15 0 a7.5 7.5 0 1 0 -15 0zM1526.5 646.24 a7.5 7.5 0 1 0 15 0 a7.5 7.5 0 1 0 -15 0z" fill="rgba(8, 34, 60, 0.51)"></path><path d="M5.88 -8.85L49.18 16.15L49.18 66.15L5.88 91.15L-37.42 66.15L-37.42 16.15zM92.48 -8.85L135.79 16.15L135.79 66.15L92.48 91.15L49.18 66.15L49.18 16.15zM135.79 216.15L179.09 241.15L179.09 291.15L135.79 316.15L92.48 291.15L92.48 241.15zM135.79 366.15L179.09 391.15L179.09 441.15L135.79 466.15L92.48 441.15L92.48 391.15zM135.79 516.15L179.09 541.15L179.09 591.15L135.79 616.15L92.48 591.15L92.48 541.15zM222.39 66.15L265.69 91.15L265.69 141.15L222.39 166.15L179.09 141.15L179.09 91.15zM179.09 141.15L222.39 166.15L222.39 216.15L179.09 241.15L135.79 216.15L135.79 166.15zM222.39 366.15L265.69 391.15L265.69 441.15L222.39 466.15L179.09 441.15L179.09 391.15zM309 366.15L352.3 391.15L352.3 441.15L309 466.15L265.69 441.15L265.69 391.15zM309 516.15L352.3 541.15L352.3 591.15L309 616.15L265.69 591.15L265.69 541.15zM395.6 66.15L438.91 91.15L438.91 141.15L395.6 166.15L352.3 141.15L352.3 91.15zM438.91 291.15L482.21 316.15L482.21 366.15L438.91 391.15L395.6 366.15L395.6 316.15zM482.21 366.15L525.51 391.15L525.51 441.15L482.21 466.15L438.91 441.15L438.91 391.15zM482.21 516.15L525.51 541.15L525.51 591.15L482.21 616.15L438.91 591.15L438.91 541.15zM525.51 291.15L568.81 316.15L568.81 366.15L525.51 391.15L482.21 366.15L482.21 316.15zM568.81 366.15L612.12 391.15L612.12 441.15L568.81 466.15L525.51 441.15L525.51 391.15zM568.81 516.15L612.12 541.15L612.12 591.15L568.81 616.15L525.51 591.15L525.51 541.15zM612.12 291.15L655.42 316.15L655.42 366.15L612.12 391.15L568.81 366.15L568.81 316.15zM698.72 291.15L742.02 316.15L742.02 366.15L698.72 391.15L655.42 366.15L655.42 316.15zM915.23 66.15L958.54 91.15L958.54 141.15L915.23 166.15L871.93 141.15L871.93 91.15zM871.93 141.15L915.23 166.15L915.23 216.15L871.93 241.15L828.63 216.15L828.63 166.15zM958.54 -8.85L1001.84 16.15L1001.84 66.15L958.54 91.15L915.23 66.15L915.23 16.15zM958.54 441.15L1001.84 466.15L1001.84 516.15L958.54 541.15L915.23 516.15L915.23 466.15zM1045.14 141.15L1088.44 166.15L1088.44 216.15L1045.14 241.15L1001.84 216.15L1001.84 166.15zM1088.44 216.15L1131.75 241.15L1131.75 291.15L1088.44 316.15L1045.14 291.15L1045.14 241.15zM1045.14 291.15L1088.44 316.15L1088.44 366.15L1045.14 391.15L1001.84 366.15L1001.84 316.15zM1088.44 366.15L1131.75 391.15L1131.75 441.15L1088.44 466.15L1045.14 441.15L1045.14 391.15zM1045.14 441.15L1088.44 466.15L1088.44 516.15L1045.14 541.15L1001.84 516.15L1001.84 466.15zM1131.75 141.15L1175.05 166.15L1175.05 216.15L1131.75 241.15L1088.44 216.15L1088.44 166.15zM1175.05 216.15L1218.35 241.15L1218.35 291.15L1175.05 316.15L1131.75 291.15L1131.75 241.15zM1131.75 441.15L1175.05 466.15L1175.05 516.15L1131.75 541.15L1088.44 516.15L1088.44 466.15zM1218.35 441.15L1261.65 466.15L1261.65 516.15L1218.35 541.15L1175.05 516.15L1175.05 466.15zM1348.26 66.15L1391.56 91.15L1391.56 141.15L1348.26 166.15L1304.96 141.15L1304.96 91.15zM1348.26 216.15L1391.56 241.15L1391.56 291.15L1348.26 316.15L1304.96 291.15L1304.96 241.15zM1434.86 66.15L1478.17 91.15L1478.17 141.15L1434.86 166.15L1391.56 141.15L1391.56 91.15zM1391.56 141.15L1434.86 166.15L1434.86 216.15L1391.56 241.15L1348.26 216.15L1348.26 166.15zM1434.86 516.15L1478.17 541.15L1478.17 591.15L1434.86 616.15L1391.56 591.15L1391.56 541.15z" stroke="rgba(6, 80, 156, 0.33)" stroke-width="2"></path></g><defs><mask id="SvgjsMask1010"><rect width="1440" height="560" fill="#ffffff"></rect></mask></defs></svg>