<svg xmlns="http://www.w3.org/2000/svg" version="1.1" xmlns:xlink="http://www.w3.org/1999/xlink" xmlns:svgjs="http://svgjs.dev/svgjs" width="1440" height="560" preserveAspectRatio="none" viewBox="0 0 1440 560"><g mask="url(&quot;#SvgjsMask1139&quot;)" fill="none"><path d="M344.06 400.77L485.23 482.27L485.23 645.27L344.06 726.77L202.9 645.27L202.9 482.27zM626.39 400.77L767.56 482.27L767.56 645.27L626.39 726.77L485.23 645.27L485.23 482.27zM1049.89 156.27L1191.06 237.77L1191.06 400.77L1049.89 482.27L908.73 400.77L908.73 237.77zM908.73 400.77L1049.89 482.27L1049.89 645.27L908.73 726.77L767.56 645.27L767.56 482.27zM1332.23 156.27L1473.39 237.77L1473.39 400.77L1332.23 482.27L1191.06 400.77L1191.06 237.77zM1614.56 156.27L1755.72 237.77L1755.72 400.77L1614.56 482.27L1473.39 400.77L1473.39 237.77z" stroke="rgba(8, 34, 60, 0.51)" stroke-width="2"></path><path d="M327.76 400.77 a16.3 16.3 0 1 0 32.6 0 a16.3 16.3 0 1 0 -32.6 0zM468.93 482.27 a16.3 16.3 0 1 0 32.6 0 a16.3 16.3 0 1 0 -32.6 0zM468.93 645.27 a16.3 16.3 0 1 0 32.6 0 a16.3 16.3 0 1 0 -32.6 0zM327.76 726.77 a16.3 16.3 0 1 0 32.6 0 a16.3 16.3 0 1 0 -32.6 0zM186.6 645.27 a16.3 16.3 0 1 0 32.6 0 a16.3 16.3 0 1 0 -32.6 0zM186.6 482.27 a16.3 16.3 0 1 0 32.6 0 a16.3 16.3 0 1 0 -32.6 0zM610.09 400.77 a16.3 16.3 0 1 0 32.6 0 a16.3 16.3 0 1 0 -32.6 0zM751.26 482.27 a16.3 16.3 0 1 0 32.6 0 a16.3 16.3 0 1 0 -32.6 0zM751.26 645.27 a16.3 16.3 0 1 0 32.6 0 a16.3 16.3 0 1 0 -32.6 0zM610.09 726.77 a16.3 16.3 0 1 0 32.6 0 a16.3 16.3 0 1 0 -32.6 0zM1033.59 156.27 a16.3 16.3 0 1 0 32.6 0 a16.3 16.3 0 1 0 -32.6 0zM1174.76 237.77 a16.3 16.3 0 1 0 32.6 0 a16.3 16.3 0 1 0 -32.6 0zM1174.76 400.77 a16.3 16.3 0 1 0 32.6 0 a16.3 16.3 0 1 0 -32.6 0zM1033.59 482.27 a16.3 16.3 0 1 0 32.6 0 a16.3 16.3 0 1 0 -32.6 0zM892.43 400.77 a16.3 16.3 0 1 0 32.6 0 a16.3 16.3 0 1 0 -32.6 0zM892.43 237.77 a16.3 16.3 0 1 0 32.6 0 a16.3 16.3 0 1 0 -32.6 0zM1033.59 645.27 a16.3 16.3 0 1 0 32.6 0 a16.3 16.3 0 1 0 -32.6 0zM892.43 726.77 a16.3 16.3 0 1 0 32.6 0 a16.3 16.3 0 1 0 -32.6 0zM1315.93 156.27 a16.3 16.3 0 1 0 32.6 0 a16.3 16.3 0 1 0 -32.6 0zM1457.09 237.77 a16.3 16.3 0 1 0 32.6 0 a16.3 16.3 0 1 0 -32.6 0zM1457.09 400.77 a16.3 16.3 0 1 0 32.6 0 a16.3 16.3 0 1 0 -32.6 0zM1315.93 482.27 a16.3 16.3 0 1 0 32.6 0 a16.3 16.3 0 1 0 -32.6 0zM1598.26 156.27 a16.3 16.3 0 1 0 32.6 0 a16.3 16.3 0 1 0 -32.6 0zM1739.42 237.77 a16.3 16.3 0 1 0 32.6 0 a16.3 16.3 0 1 0 -32.6 0zM1739.42 400.77 a16.3 16.3 0 1 0 32.6 0 a16.3 16.3 0 1 0 -32.6 0zM1598.26 482.27 a16.3 16.3 0 1 0 32.6 0 a16.3 16.3 0 1 0 -32.6 0z" fill="rgba(8, 34, 60, 0.51)"></path><path d="M41.61 281.1L84.91 306.1L84.91 356.1L41.61 381.1L-1.69 356.1L-1.69 306.1zM84.91 356.1L128.22 381.1L128.22 431.1L84.91 456.1L41.61 431.1L41.61 381.1zM128.22 -18.9L171.52 6.1L171.52 56.1L128.22 81.1L84.91 56.1L84.91 6.1zM171.52 56.1L214.82 81.1L214.82 131.1L171.52 156.1L128.22 131.1L128.22 81.1zM128.22 131.1L171.52 156.1L171.52 206.1L128.22 231.1L84.91 206.1L84.91 156.1zM171.52 356.1L214.82 381.1L214.82 431.1L171.52 456.1L128.22 431.1L128.22 381.1zM128.22 431.1L171.52 456.1L171.52 506.1L128.22 531.1L84.91 506.1L84.91 456.1zM171.52 506.1L214.82 531.1L214.82 581.1L171.52 606.1L128.22 581.1L128.22 531.1zM214.82 -18.9L258.12 6.1L258.12 56.1L214.82 81.1L171.52 56.1L171.52 6.1zM258.12 56.1L301.43 81.1L301.43 131.1L258.12 156.1L214.82 131.1L214.82 81.1zM214.82 131.1L258.12 156.1L258.12 206.1L214.82 231.1L171.52 206.1L171.52 156.1zM258.12 206.1L301.43 231.1L301.43 281.1L258.12 306.1L214.82 281.1L214.82 231.1zM258.12 356.1L301.43 381.1L301.43 431.1L258.12 456.1L214.82 431.1L214.82 381.1zM258.12 506.1L301.43 531.1L301.43 581.1L258.12 606.1L214.82 581.1L214.82 531.1zM301.43 131.1L344.73 156.1L344.73 206.1L301.43 231.1L258.12 206.1L258.12 156.1zM388.03 131.1L431.33 156.1L431.33 206.1L388.03 231.1L344.73 206.1L344.73 156.1zM431.33 506.1L474.64 531.1L474.64 581.1L431.33 606.1L388.03 581.1L388.03 531.1zM474.64 131.1L517.94 156.1L517.94 206.1L474.64 231.1L431.33 206.1L431.33 156.1zM517.94 206.1L561.24 231.1L561.24 281.1L517.94 306.1L474.64 281.1L474.64 231.1zM561.24 131.1L604.54 156.1L604.54 206.1L561.24 231.1L517.94 206.1L517.94 156.1zM604.54 206.1L647.85 231.1L647.85 281.1L604.54 306.1L561.24 281.1L561.24 231.1zM561.24 431.1L604.54 456.1L604.54 506.1L561.24 531.1L517.94 506.1L517.94 456.1zM691.15 206.1L734.45 231.1L734.45 281.1L691.15 306.1L647.85 281.1L647.85 231.1zM647.85 281.1L691.15 306.1L691.15 356.1L647.85 381.1L604.54 356.1L604.54 306.1zM691.15 356.1L734.45 381.1L734.45 431.1L691.15 456.1L647.85 431.1L647.85 381.1zM647.85 431.1L691.15 456.1L691.15 506.1L647.85 531.1L604.54 506.1L604.54 456.1zM777.75 56.1L821.06 81.1L821.06 131.1L777.75 156.1L734.45 131.1L734.45 81.1zM777.75 206.1L821.06 231.1L821.06 281.1L777.75 306.1L734.45 281.1L734.45 231.1zM821.06 131.1L864.36 156.1L864.36 206.1L821.06 231.1L777.75 206.1L777.75 156.1zM821.06 281.1L864.36 306.1L864.36 356.1L821.06 381.1L777.75 356.1L777.75 306.1zM864.36 356.1L907.66 381.1L907.66 431.1L864.36 456.1L821.06 431.1L821.06 381.1zM864.36 506.1L907.66 531.1L907.66 581.1L864.36 606.1L821.06 581.1L821.06 531.1zM950.96 56.1L994.27 81.1L994.27 131.1L950.96 156.1L907.66 131.1L907.66 81.1zM907.66 281.1L950.96 306.1L950.96 356.1L907.66 381.1L864.36 356.1L864.36 306.1zM950.96 356.1L994.27 381.1L994.27 431.1L950.96 456.1L907.66 431.1L907.66 381.1zM994.27 281.1L1037.57 306.1L1037.57 356.1L994.27 381.1L950.96 356.1L950.96 306.1zM994.27 431.1L1037.57 456.1L1037.57 506.1L994.27 531.1L950.96 506.1L950.96 456.1zM1037.57 506.1L1080.87 531.1L1080.87 581.1L1037.57 606.1L994.27 581.1L994.27 531.1zM1080.87 -18.9L1124.17 6.1L1124.17 56.1L1080.87 81.1L1037.57 56.1L1037.57 6.1zM1124.17 56.1L1167.47 81.1L1167.47 131.1L1124.17 156.1L1080.87 131.1L1080.87 81.1zM1124.17 206.1L1167.47 231.1L1167.47 281.1L1124.17 306.1L1080.87 281.1L1080.87 231.1zM1080.87 431.1L1124.17 456.1L1124.17 506.1L1080.87 531.1L1037.57 506.1L1037.57 456.1zM1167.47 -18.9L1210.78 6.1L1210.78 56.1L1167.47 81.1L1124.17 56.1L1124.17 6.1zM1210.78 56.1L1254.08 81.1L1254.08 131.1L1210.78 156.1L1167.47 131.1L1167.47 81.1zM1210.78 206.1L1254.08 231.1L1254.08 281.1L1210.78 306.1L1167.47 281.1L1167.47 231.1zM1210.78 356.1L1254.08 381.1L1254.08 431.1L1210.78 456.1L1167.47 431.1L1167.47 381.1zM1210.78 506.1L1254.08 531.1L1254.08 581.1L1210.78 606.1L1167.47 581.1L1167.47 531.1zM1254.08 -18.9L1297.38 6.1L1297.38 56.1L1254.08 81.1L1210.78 56.1L1210.78 6.1zM1297.38 206.1L1340.68 231.1L1340.68 281.1L1297.38 306.1L1254.08 281.1L1254.08 231.1zM1254.08 281.1L1297.38 306.1L1297.38 356.1L1254.08 381.1L1210.78 356.1L1210.78 306.1zM1297.38 506.1L1340.68 531.1L1340.68 581.1L1297.38 606.1L1254.08 581.1L1254.08 531.1zM1383.99 356.1L1427.29 381.1L1427.29 431.1L1383.99 456.1L1340.68 431.1L1340.68 381.1zM1340.68 431.1L1383.99 456.1L1383.99 506.1L1340.68 531.1L1297.38 506.1L1297.38 456.1zM1427.29 131.1L1470.59 156.1L1470.59 206.1L1427.29 231.1L1383.99 206.1L1383.99 156.1zM1470.59 206.1L1513.89 231.1L1513.89 281.1L1470.59 306.1L1427.29 281.1L1427.29 231.1zM1427.29 431.1L1470.59 456.1L1470.59 506.1L1427.29 531.1L1383.99 506.1L1383.99 456.1zM1470.59 506.1L1513.89 531.1L1513.89 581.1L1470.59 606.1L1427.29 581.1L1427.29 531.1z" stroke="rgba(28, 29, 30, 0.08)" stroke-width="2"></path></g><defs><mask id="SvgjsMask1139"><rect width="1440" height="560" fill="#ffffff"></rect></mask></defs></svg>