<svg xmlns="http://www.w3.org/2000/svg" version="1.1" xmlns:xlink="http://www.w3.org/1999/xlink" xmlns:svgjs="http://svgjs.dev/svgjs" width="1440" height="560" preserveAspectRatio="none" viewBox="0 0 1440 560"><g mask="url(&quot;#SvgjsMask1310&quot;)" fill="none"><rect width="1440" height="560" x="0" y="0" fill="url(&quot;#SvgjsLinearGradient1311&quot;)"></rect><path d="M-68.38 511.08L-68.38 511.08" stroke="#132e65" stroke-width="1.5"></path><path d="M-68.38 511.08L94.04 488.61" stroke="#132e65" stroke-width="1.5"></path><path d="M-68.38 511.08L92.61 407.83" stroke="#132e65" stroke-width="1.5"></path><path d="M-68.38 511.08L-59.91 702.31" stroke="#132e65" stroke-width="1.5"></path><path d="M-68.38 511.08L106.41 638.46" stroke="#132e65" stroke-width="1.5"></path><path d="M-68.38 511.08L211.42 505.5" stroke="#132e65" stroke-width="1.5"></path><path d="M-68.38 511.08L219.28 380.14" stroke="#132e65" stroke-width="1.5"></path><path d="M-59.91 702.31L-59.91 702.31" stroke="#132e65" stroke-width="1.5"></path><path d="M-59.91 702.31L106.41 638.46" stroke="#132e65" stroke-width="1.5"></path><path d="M-59.91 702.31L193.24 700.13" stroke="#132e65" stroke-width="1.5"></path><path d="M-59.91 702.31L94.04 488.61" stroke="#132e65" stroke-width="1.5"></path><path d="M-59.91 702.31L92.61 407.83" stroke="#132e65" stroke-width="1.5"></path><path d="M92.61 407.83L92.61 407.83" stroke="#132e65" stroke-width="1.5"></path><path d="M92.61 407.83L94.04 488.61" stroke="#132e65" stroke-width="1.5"></path><path d="M92.61 407.83L219.28 380.14" stroke="#132e65" stroke-width="1.5"></path><path d="M92.61 407.83L211.42 505.5" stroke="#132e65" stroke-width="1.5"></path><path d="M94.04 488.61L94.04 488.61" stroke="#132e65" stroke-width="1.5"></path><path d="M106.41 638.46L106.41 638.46" stroke="#132e65" stroke-width="1.5"></path><path d="M106.41 638.46L193.24 700.13" stroke="#132e65" stroke-width="1.5"></path><path d="M106.41 638.46L94.04 488.61" stroke="#132e65" stroke-width="1.5"></path><path d="M106.41 638.46L211.42 505.5" stroke="#132e65" stroke-width="1.5"></path><path d="M219.28 380.14L219.28 380.14" stroke="#132e65" stroke-width="1.5"></path><path d="M219.28 380.14L211.42 505.5" stroke="#132e65" stroke-width="1.5"></path><path d="M219.28 380.14L350.62 401.94" stroke="#132e65" stroke-width="1.5"></path><path d="M219.28 380.14L94.04 488.61" stroke="#132e65" stroke-width="1.5"></path><path d="M219.28 380.14L350 493.71" stroke="#132e65" stroke-width="1.5"></path><path d="M219.28 380.14L106.41 638.46" stroke="#132e65" stroke-width="1.5"></path><path d="M211.42 505.5L211.42 505.5" stroke="#132e65" stroke-width="1.5"></path><path d="M211.42 505.5L94.04 488.61" stroke="#132e65" stroke-width="1.5"></path><path d="M193.24 700.13L193.24 700.13" stroke="#132e65" stroke-width="1.5"></path><path d="M193.24 700.13L340.79 645.38" stroke="#132e65" stroke-width="1.5"></path><path d="M193.24 700.13L211.42 505.5" stroke="#132e65" stroke-width="1.5"></path><path d="M193.24 700.13L94.04 488.61" stroke="#132e65" stroke-width="1.5"></path><path d="M193.24 700.13L350 493.71" stroke="#132e65" stroke-width="1.5"></path><path d="M350.62 401.94L350.62 401.94" stroke="#132e65" stroke-width="1.5"></path><path d="M350.62 401.94L350 493.71" stroke="#132e65" stroke-width="1.5"></path><path d="M350.62 401.94L211.42 505.5" stroke="#132e65" stroke-width="1.5"></path><path d="M350.62 401.94L528.41 385.3" stroke="#132e65" stroke-width="1.5"></path><path d="M350.62 401.94L532.65 552.83" stroke="#132e65" stroke-width="1.5"></path><path d="M350 493.71L350 493.71" stroke="#132e65" stroke-width="1.5"></path><path d="M350 493.71L211.42 505.5" stroke="#132e65" stroke-width="1.5"></path><path d="M350 493.71L340.79 645.38" stroke="#132e65" stroke-width="1.5"></path><path d="M350 493.71L532.65 552.83" stroke="#132e65" stroke-width="1.5"></path><path d="M350 493.71L528.41 385.3" stroke="#132e65" stroke-width="1.5"></path><path d="M340.79 645.38L340.79 645.38" stroke="#132e65" stroke-width="1.5"></path><path d="M340.79 645.38L499.97 649.52" stroke="#132e65" stroke-width="1.5"></path><path d="M528.41 385.3L528.41 385.3" stroke="#132e65" stroke-width="1.5"></path><path d="M528.41 385.3L532.65 552.83" stroke="#132e65" stroke-width="1.5"></path><path d="M528.41 385.3L699.36 379.11" stroke="#132e65" stroke-width="1.5"></path><path d="M532.65 552.83L532.65 552.83" stroke="#132e65" stroke-width="1.5"></path><path d="M532.65 552.83L499.97 649.52" stroke="#132e65" stroke-width="1.5"></path><path d="M499.97 649.52L499.97 649.52" stroke="#132e65" stroke-width="1.5"></path><path d="M499.97 649.52L689.06 673.87" stroke="#132e65" stroke-width="1.5"></path><path d="M499.97 649.52L350 493.71" stroke="#132e65" stroke-width="1.5"></path><path d="M499.97 649.52L528.41 385.3" stroke="#132e65" stroke-width="1.5"></path><path d="M499.97 649.52L350.62 401.94" stroke="#132e65" stroke-width="1.5"></path><path d="M699.36 379.11L699.36 379.11" stroke="#132e65" stroke-width="1.5"></path><path d="M699.36 379.11L825.28 369.37" stroke="#132e65" stroke-width="1.5"></path><path d="M689.06 673.87L689.06 673.87" stroke="#132e65" stroke-width="1.5"></path><path d="M689.06 673.87L854.02 698.67" stroke="#132e65" stroke-width="1.5"></path><path d="M689.06 673.87L813.05 547.94" stroke="#132e65" stroke-width="1.5"></path><path d="M825.28 369.37L825.28 369.37" stroke="#132e65" stroke-width="1.5"></path><path d="M825.28 369.37L962.47 387.45" stroke="#132e65" stroke-width="1.5"></path><path d="M825.28 369.37L813.05 547.94" stroke="#132e65" stroke-width="1.5"></path><path d="M825.28 369.37L955.13 210.41" stroke="#132e65" stroke-width="1.5"></path><path d="M813.05 547.94L813.05 547.94" stroke="#132e65" stroke-width="1.5"></path><path d="M813.05 547.94L854.02 698.67" stroke="#132e65" stroke-width="1.5"></path><path d="M813.05 547.94L972.66 550.56" stroke="#132e65" stroke-width="1.5"></path><path d="M813.05 547.94L941.79 698.56" stroke="#132e65" stroke-width="1.5"></path><path d="M813.05 547.94L699.36 379.11" stroke="#132e65" stroke-width="1.5"></path><path d="M854.02 698.67L854.02 698.67" stroke="#132e65" stroke-width="1.5"></path><path d="M854.02 698.67L941.79 698.56" stroke="#132e65" stroke-width="1.5"></path><path d="M965.53 -51.73L965.53 -51.73" stroke="#132e65" stroke-width="1.5"></path><path d="M965.53 -51.73L954.39 57.17" stroke="#132e65" stroke-width="1.5"></path><path d="M954.39 57.17L954.39 57.17" stroke="#132e65" stroke-width="1.5"></path><path d="M954.39 57.17L955.13 210.41" stroke="#132e65" stroke-width="1.5"></path><path d="M954.39 57.17L1155.81 83.76" stroke="#132e65" stroke-width="1.5"></path><path d="M954.39 57.17L1106.77 -82.78" stroke="#132e65" stroke-width="1.5"></path><path d="M954.39 57.17L1091.9 247.59" stroke="#132e65" stroke-width="1.5"></path><path d="M954.39 57.17L1239.72 -98.97" stroke="#132e65" stroke-width="1.5"></path><path d="M955.13 210.41L955.13 210.41" stroke="#132e65" stroke-width="1.5"></path><path d="M955.13 210.41L1091.9 247.59" stroke="#132e65" stroke-width="1.5"></path><path d="M955.13 210.41L962.47 387.45" stroke="#132e65" stroke-width="1.5"></path><path d="M955.13 210.41L1155.81 83.76" stroke="#132e65" stroke-width="1.5"></path><path d="M955.13 210.41L1158.05 341.49" stroke="#132e65" stroke-width="1.5"></path><path d="M962.47 387.45L962.47 387.45" stroke="#132e65" stroke-width="1.5"></path><path d="M962.47 387.45L972.66 550.56" stroke="#132e65" stroke-width="1.5"></path><path d="M962.47 387.45L1091.9 247.59" stroke="#132e65" stroke-width="1.5"></path><path d="M972.66 550.56L972.66 550.56" stroke="#132e65" stroke-width="1.5"></path><path d="M972.66 550.56L1118.1 555.35" stroke="#132e65" stroke-width="1.5"></path><path d="M972.66 550.56L941.79 698.56" stroke="#132e65" stroke-width="1.5"></path><path d="M972.66 550.56L1129.84 644.63" stroke="#132e65" stroke-width="1.5"></path><path d="M972.66 550.56L854.02 698.67" stroke="#132e65" stroke-width="1.5"></path><path d="M941.79 698.56L941.79 698.56" stroke="#132e65" stroke-width="1.5"></path><path d="M1106.77 -82.78L1106.77 -82.78" stroke="#132e65" stroke-width="1.5"></path><path d="M1106.77 -82.78L1239.72 -98.97" stroke="#132e65" stroke-width="1.5"></path><path d="M1106.77 -82.78L965.53 -51.73" stroke="#132e65" stroke-width="1.5"></path><path d="M1106.77 -82.78L1155.81 83.76" stroke="#132e65" stroke-width="1.5"></path><path d="M1106.77 -82.78L1304.86 63.89" stroke="#132e65" stroke-width="1.5"></path><path d="M1106.77 -82.78L1426.99 -41.15" stroke="#132e65" stroke-width="1.5"></path><path d="M1155.81 83.76L1155.81 83.76" stroke="#132e65" stroke-width="1.5"></path><path d="M1155.81 83.76L1304.86 63.89" stroke="#132e65" stroke-width="1.5"></path><path d="M1155.81 83.76L1091.9 247.59" stroke="#132e65" stroke-width="1.5"></path><path d="M1091.9 247.59L1091.9 247.59" stroke="#132e65" stroke-width="1.5"></path><path d="M1091.9 247.59L1158.05 341.49" stroke="#132e65" stroke-width="1.5"></path><path d="M1158.05 341.49L1158.05 341.49" stroke="#132e65" stroke-width="1.5"></path><path d="M1158.05 341.49L1301.16 342.77" stroke="#132e65" stroke-width="1.5"></path><path d="M1158.05 341.49L1272.48 253.15" stroke="#132e65" stroke-width="1.5"></path><path d="M1158.05 341.49L962.47 387.45" stroke="#132e65" stroke-width="1.5"></path><path d="M1158.05 341.49L1118.1 555.35" stroke="#132e65" stroke-width="1.5"></path><path d="M1118.1 555.35L1118.1 555.35" stroke="#132e65" stroke-width="1.5"></path><path d="M1118.1 555.35L1129.84 644.63" stroke="#132e65" stroke-width="1.5"></path><path d="M1118.1 555.35L1239.85 640.7" stroke="#132e65" stroke-width="1.5"></path><path d="M1118.1 555.35L1305.43 545.38" stroke="#132e65" stroke-width="1.5"></path><path d="M1129.84 644.63L1129.84 644.63" stroke="#132e65" stroke-width="1.5"></path><path d="M1129.84 644.63L1239.85 640.7" stroke="#132e65" stroke-width="1.5"></path><path d="M1129.84 644.63L941.79 698.56" stroke="#132e65" stroke-width="1.5"></path><path d="M1129.84 644.63L1305.43 545.38" stroke="#132e65" stroke-width="1.5"></path><path d="M1239.72 -98.97L1239.72 -98.97" stroke="#132e65" stroke-width="1.5"></path><path d="M1239.72 -98.97L1304.86 63.89" stroke="#132e65" stroke-width="1.5"></path><path d="M1239.72 -98.97L1426.99 -41.15" stroke="#132e65" stroke-width="1.5"></path><path d="M1239.72 -98.97L1155.81 83.76" stroke="#132e65" stroke-width="1.5"></path><path d="M1239.72 -98.97L1423.66 50.85" stroke="#132e65" stroke-width="1.5"></path><path d="M1239.72 -98.97L965.53 -51.73" stroke="#132e65" stroke-width="1.5"></path><path d="M1304.86 63.89L1304.86 63.89" stroke="#132e65" stroke-width="1.5"></path><path d="M1304.86 63.89L1423.66 50.85" stroke="#132e65" stroke-width="1.5"></path><path d="M1304.86 63.89L1426.99 -41.15" stroke="#132e65" stroke-width="1.5"></path><path d="M1272.48 253.15L1272.48 253.15" stroke="#132e65" stroke-width="1.5"></path><path d="M1272.48 253.15L1301.16 342.77" stroke="#132e65" stroke-width="1.5"></path><path d="M1272.48 253.15L1091.9 247.59" stroke="#132e65" stroke-width="1.5"></path><path d="M1272.48 253.15L1452.23 231.94" stroke="#132e65" stroke-width="1.5"></path><path d="M1272.48 253.15L1304.86 63.89" stroke="#132e65" stroke-width="1.5"></path><path d="M1272.48 253.15L1155.81 83.76" stroke="#132e65" stroke-width="1.5"></path><path d="M1301.16 342.77L1301.16 342.77" stroke="#132e65" stroke-width="1.5"></path><path d="M1301.16 342.77L1424.48 406.69" stroke="#132e65" stroke-width="1.5"></path><path d="M1305.43 545.38L1305.43 545.38" stroke="#132e65" stroke-width="1.5"></path><path d="M1305.43 545.38L1239.85 640.7" stroke="#132e65" stroke-width="1.5"></path><path d="M1305.43 545.38L1447.16 503.93" stroke="#132e65" stroke-width="1.5"></path><path d="M1305.43 545.38L1424.48 406.69" stroke="#132e65" stroke-width="1.5"></path><path d="M1305.43 545.38L1414.46 696.31" stroke="#132e65" stroke-width="1.5"></path><path d="M1239.85 640.7L1239.85 640.7" stroke="#132e65" stroke-width="1.5"></path><path d="M1426.99 -41.15L1426.99 -41.15" stroke="#132e65" stroke-width="1.5"></path><path d="M1426.99 -41.15L1423.66 50.85" stroke="#132e65" stroke-width="1.5"></path><path d="M1423.66 50.85L1423.66 50.85" stroke="#132e65" stroke-width="1.5"></path><path d="M1452.23 231.94L1452.23 231.94" stroke="#132e65" stroke-width="1.5"></path><path d="M1452.23 231.94L1609.32 196.42" stroke="#132e65" stroke-width="1.5"></path><path d="M1452.23 231.94L1424.48 406.69" stroke="#132e65" stroke-width="1.5"></path><path d="M1452.23 231.94L1423.66 50.85" stroke="#132e65" stroke-width="1.5"></path><path d="M1452.23 231.94L1301.16 342.77" stroke="#132e65" stroke-width="1.5"></path><path d="M1452.23 231.94L1304.86 63.89" stroke="#132e65" stroke-width="1.5"></path><path d="M1424.48 406.69L1424.48 406.69" stroke="#132e65" stroke-width="1.5"></path><path d="M1424.48 406.69L1447.16 503.93" stroke="#132e65" stroke-width="1.5"></path><path d="M1424.48 406.69L1597.14 512.91" stroke="#132e65" stroke-width="1.5"></path><path d="M1424.48 406.69L1272.48 253.15" stroke="#132e65" stroke-width="1.5"></path><path d="M1447.16 503.93L1447.16 503.93" stroke="#132e65" stroke-width="1.5"></path><path d="M1447.16 503.93L1597.14 512.91" stroke="#132e65" stroke-width="1.5"></path><path d="M1447.16 503.93L1414.46 696.31" stroke="#132e65" stroke-width="1.5"></path><path d="M1447.16 503.93L1584.41 651.13" stroke="#132e65" stroke-width="1.5"></path><path d="M1414.46 696.31L1414.46 696.31" stroke="#132e65" stroke-width="1.5"></path><path d="M1414.46 696.31L1584.41 651.13" stroke="#132e65" stroke-width="1.5"></path><path d="M1414.46 696.31L1239.85 640.7" stroke="#132e65" stroke-width="1.5"></path><path d="M1609.32 196.42L1609.32 196.42" stroke="#132e65" stroke-width="1.5"></path><path d="M1609.32 196.42L1423.66 50.85" stroke="#132e65" stroke-width="1.5"></path><path d="M1597.14 512.91L1597.14 512.91" stroke="#132e65" stroke-width="1.5"></path><path d="M1597.14 512.91L1584.41 651.13" stroke="#132e65" stroke-width="1.5"></path><path d="M1584.41 651.13L1584.41 651.13" stroke="#132e65" stroke-width="1.5"></path><path d="M1584.41 651.13L1424.48 406.69" stroke="#132e65" stroke-width="1.5"></path><path d="M1584.41 651.13L1305.43 545.38" stroke="#132e65" stroke-width="1.5"></path><path d="M1584.41 651.13L1239.85 640.7" stroke="#132e65" stroke-width="1.5"></path><circle r="5" cx="-68.38" cy="511.08" fill="#132e65"></circle><circle r="5" cx="-59.91" cy="702.31" fill="#132e65"></circle><circle r="5" cx="92.61" cy="407.83" fill="#132e65"></circle><circle r="5" cx="94.04" cy="488.61" fill="#132e65"></circle><circle r="5" cx="106.41" cy="638.46" fill="#132e65"></circle><circle r="5" cx="219.28" cy="380.14" fill="#132e65"></circle><circle r="5" cx="211.42" cy="505.5" fill="#132e65"></circle><circle r="5" cx="193.24" cy="700.13" fill="#132e65"></circle><circle r="5" cx="350.62" cy="401.94" fill="#132e65"></circle><circle r="5" cx="350" cy="493.71" fill="#132e65"></circle><circle r="5" cx="340.79" cy="645.38" fill="#132e65"></circle><circle r="5" cx="528.41" cy="385.3" fill="#132e65"></circle><circle r="5" cx="532.65" cy="552.83" fill="#132e65"></circle><circle r="5" cx="499.97" cy="649.52" fill="#132e65"></circle><circle r="5" cx="699.36" cy="379.11" fill="#132e65"></circle><circle r="5" cx="689.06" cy="673.87" fill="#132e65"></circle><circle r="5" cx="825.28" cy="369.37" fill="#132e65"></circle><circle r="5" cx="813.05" cy="547.94" fill="#132e65"></circle><circle r="5" cx="854.02" cy="698.67" fill="#132e65"></circle><circle r="5" cx="965.53" cy="-51.73" fill="#132e65"></circle><circle r="5" cx="954.39" cy="57.17" fill="#132e65"></circle><circle r="5" cx="955.13" cy="210.41" fill="#132e65"></circle><circle r="5" cx="962.47" cy="387.45" fill="#132e65"></circle><circle r="5" cx="972.66" cy="550.56" fill="#132e65"></circle><circle r="5" cx="941.79" cy="698.56" fill="#132e65"></circle><circle r="5" cx="1106.77" cy="-82.78" fill="#132e65"></circle><circle r="5" cx="1155.81" cy="83.76" fill="#132e65"></circle><circle r="5" cx="1091.9" cy="247.59" fill="#132e65"></circle><circle r="5" cx="1158.05" cy="341.49" fill="#132e65"></circle><circle r="5" cx="1118.1" cy="555.35" fill="#132e65"></circle><circle r="5" cx="1129.84" cy="644.63" fill="#132e65"></circle><circle r="5" cx="1239.72" cy="-98.97" fill="#132e65"></circle><circle r="5" cx="1304.86" cy="63.89" fill="#132e65"></circle><circle r="5" cx="1272.48" cy="253.15" fill="#132e65"></circle><circle r="5" cx="1301.16" cy="342.77" fill="#132e65"></circle><circle r="5" cx="1305.43" cy="545.38" fill="#132e65"></circle><circle r="5" cx="1239.85" cy="640.7" fill="#132e65"></circle><circle r="5" cx="1426.99" cy="-41.15" fill="#132e65"></circle><circle r="5" cx="1423.66" cy="50.85" fill="#132e65"></circle><circle r="5" cx="1452.23" cy="231.94" fill="#132e65"></circle><circle r="5" cx="1424.48" cy="406.69" fill="#132e65"></circle><circle r="5" cx="1447.16" cy="503.93" fill="#132e65"></circle><circle r="5" cx="1414.46" cy="696.31" fill="#132e65"></circle><circle r="5" cx="1609.32" cy="196.42" fill="#132e65"></circle><circle r="5" cx="1597.14" cy="512.91" fill="#132e65"></circle><circle r="5" cx="1584.41" cy="651.13" fill="#132e65"></circle><path d="M-91.19 660.1L-91.19 660.1" stroke="hsl(228.5, 77.2%, 51.5%)" stroke-width="1.5"></path><path d="M-91.19 660.1L-46.22 519.08" stroke="hsl(228.5, 77.2%, 51.5%)" stroke-width="1.5"></path><path d="M-91.19 660.1L60.03 688.23" stroke="hsl(228.5, 77.2%, 51.5%)" stroke-width="1.5"></path><path d="M48.85 519.17L48.85 519.17" stroke="hsl(228.5, 77.2%, 51.5%)" stroke-width="1.5"></path><path d="M48.85 519.17L-46.22 519.08" stroke="hsl(228.5, 77.2%, 51.5%)" stroke-width="1.5"></path><path d="M48.85 519.17L60.03 688.23" stroke="hsl(228.5, 77.2%, 51.5%)" stroke-width="1.5"></path><path d="M48.85 519.17L237.68 537.06" stroke="hsl(228.5, 77.2%, 51.5%)" stroke-width="1.5"></path><path d="M237.68 537.06L237.68 537.06" stroke="hsl(228.5, 77.2%, 51.5%)" stroke-width="1.5"></path><path d="M237.68 537.06L247.08 642.66" stroke="hsl(228.5, 77.2%, 51.5%)" stroke-width="1.5"></path><path d="M247.08 642.66L247.08 642.66" stroke="hsl(228.5, 77.2%, 51.5%)" stroke-width="1.5"></path><path d="M247.08 642.66L357.91 685.45" stroke="hsl(228.5, 77.2%, 51.5%)" stroke-width="1.5"></path><path d="M247.08 642.66L408.18 553.37" stroke="hsl(228.5, 77.2%, 51.5%)" stroke-width="1.5"></path><path d="M247.08 642.66L60.03 688.23" stroke="hsl(228.5, 77.2%, 51.5%)" stroke-width="1.5"></path><path d="M247.08 642.66L48.85 519.17" stroke="hsl(228.5, 77.2%, 51.5%)" stroke-width="1.5"></path><path d="M542.4 689.51L542.4 689.51" stroke="hsl(228.5, 77.2%, 51.5%)" stroke-width="1.5"></path><path d="M542.4 689.51L642.75 648.42" stroke="hsl(228.5, 77.2%, 51.5%)" stroke-width="1.5"></path><path d="M542.4 689.51L357.91 685.45" stroke="hsl(228.5, 77.2%, 51.5%)" stroke-width="1.5"></path><path d="M542.4 689.51L553.42 504.75" stroke="hsl(228.5, 77.2%, 51.5%)" stroke-width="1.5"></path><path d="M979.41 492.53L979.41 492.53" stroke="hsl(228.5, 77.2%, 51.5%)" stroke-width="1.5"></path><path d="M979.41 492.53L956.17 358.59" stroke="hsl(228.5, 77.2%, 51.5%)" stroke-width="1.5"></path><path d="M979.41 492.53L1134.48 531.76" stroke="hsl(228.5, 77.2%, 51.5%)" stroke-width="1.5"></path><path d="M979.41 492.53L1001.59 662.71" stroke="hsl(228.5, 77.2%, 51.5%)" stroke-width="1.5"></path><path d="M1114.62 700.66L1114.62 700.66" stroke="hsl(228.5, 77.2%, 51.5%)" stroke-width="1.5"></path><path d="M1114.62 700.66L1001.59 662.71" stroke="hsl(228.5, 77.2%, 51.5%)" stroke-width="1.5"></path><path d="M1114.62 700.66L1282.16 704.98" stroke="hsl(228.5, 77.2%, 51.5%)" stroke-width="1.5"></path><path d="M1114.62 700.66L1134.48 531.76" stroke="hsl(228.5, 77.2%, 51.5%)" stroke-width="1.5"></path><path d="M1298.5 98.66L1298.5 98.66" stroke="hsl(228.5, 77.2%, 51.5%)" stroke-width="1.5"></path><path d="M1298.5 98.66L1302.98 200.42" stroke="hsl(228.5, 77.2%, 51.5%)" stroke-width="1.5"></path><path d="M1298.5 98.66L1420.7 85.2" stroke="hsl(228.5, 77.2%, 51.5%)" stroke-width="1.5"></path><path d="M1298.5 98.66L1304.87 -62.51" stroke="hsl(228.5, 77.2%, 51.5%)" stroke-width="1.5"></path><path d="M1298.5 98.66L1453.98 230.65" stroke="hsl(228.5, 77.2%, 51.5%)" stroke-width="1.5"></path><path d="M1298.5 98.66L1125.64 250.82" stroke="hsl(228.5, 77.2%, 51.5%)" stroke-width="1.5"></path><path d="M1298.5 98.66L1549.37 88.89" stroke="hsl(228.5, 77.2%, 51.5%)" stroke-width="1.5"></path><path d="M1420.7 85.2L1420.7 85.2" stroke="hsl(228.5, 77.2%, 51.5%)" stroke-width="1.5"></path><path d="M1420.7 85.2L1549.37 88.89" stroke="hsl(228.5, 77.2%, 51.5%)" stroke-width="1.5"></path><path d="M1420.7 85.2L1453.98 230.65" stroke="hsl(228.5, 77.2%, 51.5%)" stroke-width="1.5"></path><path d="M1420.7 85.2L1302.98 200.42" stroke="hsl(228.5, 77.2%, 51.5%)" stroke-width="1.5"></path><path d="M1453.98 230.65L1453.98 230.65" stroke="hsl(228.5, 77.2%, 51.5%)" stroke-width="1.5"></path><path d="M1453.98 230.65L1583.19 205.57" stroke="hsl(228.5, 77.2%, 51.5%)" stroke-width="1.5"></path><path d="M1453.98 230.65L1302.98 200.42" stroke="hsl(228.5, 77.2%, 51.5%)" stroke-width="1.5"></path><path d="M1407.19 403.23L1407.19 403.23" stroke="hsl(228.5, 77.2%, 51.5%)" stroke-width="1.5"></path><path d="M1407.19 403.23L1443.22 506.7" stroke="hsl(228.5, 77.2%, 51.5%)" stroke-width="1.5"></path><path d="M1407.19 403.23L1551.64 376.23" stroke="hsl(228.5, 77.2%, 51.5%)" stroke-width="1.5"></path><path d="M1407.19 403.23L1261.71 380.91" stroke="hsl(228.5, 77.2%, 51.5%)" stroke-width="1.5"></path><path d="M1407.19 403.23L1453.98 230.65" stroke="hsl(228.5, 77.2%, 51.5%)" stroke-width="1.5"></path><path d="M1407.19 403.23L1254.85 507.09" stroke="hsl(228.5, 77.2%, 51.5%)" stroke-width="1.5"></path><path d="M1407.19 403.23L1588.2 532.6" stroke="hsl(228.5, 77.2%, 51.5%)" stroke-width="1.5"></path><path d="M1417.72 679.64L1417.72 679.64" stroke="hsl(228.5, 77.2%, 51.5%)" stroke-width="1.5"></path><path d="M1417.72 679.64L1282.16 704.98" stroke="hsl(228.5, 77.2%, 51.5%)" stroke-width="1.5"></path><path d="M1417.72 679.64L1571.18 704.16" stroke="hsl(228.5, 77.2%, 51.5%)" stroke-width="1.5"></path><path d="M1417.72 679.64L1443.22 506.7" stroke="hsl(228.5, 77.2%, 51.5%)" stroke-width="1.5"></path><path d="M1596.06 -39.49L1596.06 -39.49" stroke="hsl(228.5, 77.2%, 51.5%)" stroke-width="1.5"></path><path d="M1596.06 -39.49L1549.37 88.89" stroke="hsl(228.5, 77.2%, 51.5%)" stroke-width="1.5"></path><path d="M1596.06 -39.49L1420.7 85.2" stroke="hsl(228.5, 77.2%, 51.5%)" stroke-width="1.5"></path><path d="M1596.06 -39.49L1583.19 205.57" stroke="hsl(228.5, 77.2%, 51.5%)" stroke-width="1.5"></path><path d="M1596.06 -39.49L1304.87 -62.51" stroke="hsl(228.5, 77.2%, 51.5%)" stroke-width="1.5"></path><path d="M1596.06 -39.49L1453.98 230.65" stroke="hsl(228.5, 77.2%, 51.5%)" stroke-width="1.5"></path><path d="M1596.06 -39.49L1298.5 98.66" stroke="hsl(228.5, 77.2%, 51.5%)" stroke-width="1.5"></path><path d="M-46.22 519.08L-46.22 519.08" stroke="hsl(228.5, 77.2%, 51.5%)" stroke-width="1.5"></path><path d="M-46.22 519.08L60.03 688.23" stroke="hsl(228.5, 77.2%, 51.5%)" stroke-width="1.5"></path><path d="M60.03 688.23L60.03 688.23" stroke="hsl(228.5, 77.2%, 51.5%)" stroke-width="1.5"></path><path d="M408.18 553.37L408.18 553.37" stroke="hsl(228.5, 77.2%, 51.5%)" stroke-width="1.5"></path><path d="M408.18 553.37L357.91 685.45" stroke="hsl(228.5, 77.2%, 51.5%)" stroke-width="1.5"></path><path d="M408.18 553.37L553.42 504.75" stroke="hsl(228.5, 77.2%, 51.5%)" stroke-width="1.5"></path><path d="M408.18 553.37L237.68 537.06" stroke="hsl(228.5, 77.2%, 51.5%)" stroke-width="1.5"></path><path d="M357.91 685.45L357.91 685.45" stroke="hsl(228.5, 77.2%, 51.5%)" stroke-width="1.5"></path><path d="M357.91 685.45L237.68 537.06" stroke="hsl(228.5, 77.2%, 51.5%)" stroke-width="1.5"></path><path d="M357.91 685.45L553.42 504.75" stroke="hsl(228.5, 77.2%, 51.5%)" stroke-width="1.5"></path><path d="M357.91 685.45L642.75 648.42" stroke="hsl(228.5, 77.2%, 51.5%)" stroke-width="1.5"></path><path d="M553.42 504.75L553.42 504.75" stroke="hsl(228.5, 77.2%, 51.5%)" stroke-width="1.5"></path><path d="M553.42 504.75L699.76 516.36" stroke="hsl(228.5, 77.2%, 51.5%)" stroke-width="1.5"></path><path d="M553.42 504.75L642.75 648.42" stroke="hsl(228.5, 77.2%, 51.5%)" stroke-width="1.5"></path><path d="M553.42 504.75L706.29 394.72" stroke="hsl(228.5, 77.2%, 51.5%)" stroke-width="1.5"></path><path d="M706.29 394.72L706.29 394.72" stroke="hsl(228.5, 77.2%, 51.5%)" stroke-width="1.5"></path><path d="M706.29 394.72L805.24 400.94" stroke="hsl(228.5, 77.2%, 51.5%)" stroke-width="1.5"></path><path d="M706.29 394.72L699.76 516.36" stroke="hsl(228.5, 77.2%, 51.5%)" stroke-width="1.5"></path><path d="M706.29 394.72L797.37 560.79" stroke="hsl(228.5, 77.2%, 51.5%)" stroke-width="1.5"></path><path d="M699.76 516.36L699.76 516.36" stroke="hsl(228.5, 77.2%, 51.5%)" stroke-width="1.5"></path><path d="M699.76 516.36L797.37 560.79" stroke="hsl(228.5, 77.2%, 51.5%)" stroke-width="1.5"></path><path d="M642.75 648.42L642.75 648.42" stroke="hsl(228.5, 77.2%, 51.5%)" stroke-width="1.5"></path><path d="M642.75 648.42L699.76 516.36" stroke="hsl(228.5, 77.2%, 51.5%)" stroke-width="1.5"></path><path d="M642.75 648.42L818.6 657.49" stroke="hsl(228.5, 77.2%, 51.5%)" stroke-width="1.5"></path><path d="M805.24 400.94L805.24 400.94" stroke="hsl(228.5, 77.2%, 51.5%)" stroke-width="1.5"></path><path d="M805.24 400.94L699.76 516.36" stroke="hsl(228.5, 77.2%, 51.5%)" stroke-width="1.5"></path><path d="M805.24 400.94L956.17 358.59" stroke="hsl(228.5, 77.2%, 51.5%)" stroke-width="1.5"></path><path d="M797.37 560.79L797.37 560.79" stroke="hsl(228.5, 77.2%, 51.5%)" stroke-width="1.5"></path><path d="M797.37 560.79L818.6 657.49" stroke="hsl(228.5, 77.2%, 51.5%)" stroke-width="1.5"></path><path d="M818.6 657.49L818.6 657.49" stroke="hsl(228.5, 77.2%, 51.5%)" stroke-width="1.5"></path><path d="M818.6 657.49L1001.59 662.71" stroke="hsl(228.5, 77.2%, 51.5%)" stroke-width="1.5"></path><path d="M818.6 657.49L699.76 516.36" stroke="hsl(228.5, 77.2%, 51.5%)" stroke-width="1.5"></path><path d="M956.17 358.59L956.17 358.59" stroke="hsl(228.5, 77.2%, 51.5%)" stroke-width="1.5"></path><path d="M1001.59 662.71L1001.59 662.71" stroke="hsl(228.5, 77.2%, 51.5%)" stroke-width="1.5"></path><path d="M1125.64 250.82L1125.64 250.82" stroke="hsl(228.5, 77.2%, 51.5%)" stroke-width="1.5"></path><path d="M1125.64 250.82L1145.63 376.28" stroke="hsl(228.5, 77.2%, 51.5%)" stroke-width="1.5"></path><path d="M1125.64 250.82L1302.98 200.42" stroke="hsl(228.5, 77.2%, 51.5%)" stroke-width="1.5"></path><path d="M1125.64 250.82L1261.71 380.91" stroke="hsl(228.5, 77.2%, 51.5%)" stroke-width="1.5"></path><path d="M1145.63 376.28L1145.63 376.28" stroke="hsl(228.5, 77.2%, 51.5%)" stroke-width="1.5"></path><path d="M1145.63 376.28L1261.71 380.91" stroke="hsl(228.5, 77.2%, 51.5%)" stroke-width="1.5"></path><path d="M1145.63 376.28L1134.48 531.76" stroke="hsl(228.5, 77.2%, 51.5%)" stroke-width="1.5"></path><path d="M1145.63 376.28L1254.85 507.09" stroke="hsl(228.5, 77.2%, 51.5%)" stroke-width="1.5"></path><path d="M1134.48 531.76L1134.48 531.76" stroke="hsl(228.5, 77.2%, 51.5%)" stroke-width="1.5"></path><path d="M1134.48 531.76L1254.85 507.09" stroke="hsl(228.5, 77.2%, 51.5%)" stroke-width="1.5"></path><path d="M1304.87 -62.51L1304.87 -62.51" stroke="hsl(228.5, 77.2%, 51.5%)" stroke-width="1.5"></path><path d="M1304.87 -62.51L1420.7 85.2" stroke="hsl(228.5, 77.2%, 51.5%)" stroke-width="1.5"></path><path d="M1304.87 -62.51L1302.98 200.42" stroke="hsl(228.5, 77.2%, 51.5%)" stroke-width="1.5"></path><path d="M1304.87 -62.51L1549.37 88.89" stroke="hsl(228.5, 77.2%, 51.5%)" stroke-width="1.5"></path><path d="M1302.98 200.42L1302.98 200.42" stroke="hsl(228.5, 77.2%, 51.5%)" stroke-width="1.5"></path><path d="M1261.71 380.91L1261.71 380.91" stroke="hsl(228.5, 77.2%, 51.5%)" stroke-width="1.5"></path><path d="M1261.71 380.91L1254.85 507.09" stroke="hsl(228.5, 77.2%, 51.5%)" stroke-width="1.5"></path><path d="M1254.85 507.09L1254.85 507.09" stroke="hsl(228.5, 77.2%, 51.5%)" stroke-width="1.5"></path><path d="M1254.85 507.09L1443.22 506.7" stroke="hsl(228.5, 77.2%, 51.5%)" stroke-width="1.5"></path><path d="M1254.85 507.09L1282.16 704.98" stroke="hsl(228.5, 77.2%, 51.5%)" stroke-width="1.5"></path><path d="M1282.16 704.98L1282.16 704.98" stroke="hsl(228.5, 77.2%, 51.5%)" stroke-width="1.5"></path><path d="M1282.16 704.98L1134.48 531.76" stroke="hsl(228.5, 77.2%, 51.5%)" stroke-width="1.5"></path><path d="M1282.16 704.98L1443.22 506.7" stroke="hsl(228.5, 77.2%, 51.5%)" stroke-width="1.5"></path><path d="M1443.22 506.7L1443.22 506.7" stroke="hsl(228.5, 77.2%, 51.5%)" stroke-width="1.5"></path><path d="M1443.22 506.7L1588.2 532.6" stroke="hsl(228.5, 77.2%, 51.5%)" stroke-width="1.5"></path><path d="M1443.22 506.7L1551.64 376.23" stroke="hsl(228.5, 77.2%, 51.5%)" stroke-width="1.5"></path><path d="M1443.22 506.7L1261.71 380.91" stroke="hsl(228.5, 77.2%, 51.5%)" stroke-width="1.5"></path><path d="M1549.37 88.89L1549.37 88.89" stroke="hsl(228.5, 77.2%, 51.5%)" stroke-width="1.5"></path><path d="M1549.37 88.89L1583.19 205.57" stroke="hsl(228.5, 77.2%, 51.5%)" stroke-width="1.5"></path><path d="M1583.19 205.57L1583.19 205.57" stroke="hsl(228.5, 77.2%, 51.5%)" stroke-width="1.5"></path><path d="M1583.19 205.57L1551.64 376.23" stroke="hsl(228.5, 77.2%, 51.5%)" stroke-width="1.5"></path><path d="M1583.19 205.57L1420.7 85.2" stroke="hsl(228.5, 77.2%, 51.5%)" stroke-width="1.5"></path><path d="M1551.64 376.23L1551.64 376.23" stroke="hsl(228.5, 77.2%, 51.5%)" stroke-width="1.5"></path><path d="M1551.64 376.23L1588.2 532.6" stroke="hsl(228.5, 77.2%, 51.5%)" stroke-width="1.5"></path><path d="M1588.2 532.6L1588.2 532.6" stroke="hsl(228.5, 77.2%, 51.5%)" stroke-width="1.5"></path><path d="M1588.2 532.6L1571.18 704.16" stroke="hsl(228.5, 77.2%, 51.5%)" stroke-width="1.5"></path><path d="M1588.2 532.6L1417.72 679.64" stroke="hsl(228.5, 77.2%, 51.5%)" stroke-width="1.5"></path><path d="M1588.2 532.6L1583.19 205.57" stroke="hsl(228.5, 77.2%, 51.5%)" stroke-width="1.5"></path><path d="M1571.18 704.16L1571.18 704.16" stroke="hsl(228.5, 77.2%, 51.5%)" stroke-width="1.5"></path><path d="M1571.18 704.16L1443.22 506.7" stroke="hsl(228.5, 77.2%, 51.5%)" stroke-width="1.5"></path><path d="M1571.18 704.16L1282.16 704.98" stroke="hsl(228.5, 77.2%, 51.5%)" stroke-width="1.5"></path><circle r="25" cx="-91.19" cy="660.1" fill="url(&quot;#SvgjsRadialGradient1312&quot;)"></circle><circle r="25" cx="48.85" cy="519.17" fill="url(&quot;#SvgjsRadialGradient1312&quot;)"></circle><circle r="25" cx="237.68" cy="537.06" fill="url(&quot;#SvgjsRadialGradient1312&quot;)"></circle><circle r="25" cx="247.08" cy="642.66" fill="url(&quot;#SvgjsRadialGradient1312&quot;)"></circle><circle r="25" cx="542.4" cy="689.51" fill="url(&quot;#SvgjsRadialGradient1312&quot;)"></circle><circle r="25" cx="979.41" cy="492.53" fill="url(&quot;#SvgjsRadialGradient1312&quot;)"></circle><circle r="25" cx="1114.62" cy="700.66" fill="url(&quot;#SvgjsRadialGradient1312&quot;)"></circle><circle r="25" cx="1298.5" cy="98.66" fill="url(&quot;#SvgjsRadialGradient1312&quot;)"></circle><circle r="25" cx="1420.7" cy="85.2" fill="url(&quot;#SvgjsRadialGradient1312&quot;)"></circle><circle r="25" cx="1453.98" cy="230.65" fill="url(&quot;#SvgjsRadialGradient1312&quot;)"></circle><circle r="25" cx="1407.19" cy="403.23" fill="url(&quot;#SvgjsRadialGradient1312&quot;)"></circle><circle r="25" cx="1417.72" cy="679.64" fill="url(&quot;#SvgjsRadialGradient1312&quot;)"></circle><circle r="25" cx="1596.06" cy="-39.49" fill="url(&quot;#SvgjsRadialGradient1312&quot;)"></circle><circle r="5" cx="-46.22" cy="519.08" fill="#8b9ad9"></circle><circle r="5" cx="60.03" cy="688.23" fill="#8b9ad9"></circle><circle r="5" cx="408.18" cy="553.37" fill="#8b9ad9"></circle><circle r="5" cx="357.91" cy="685.45" fill="#8b9ad9"></circle><circle r="5" cx="553.42" cy="504.75" fill="#8b9ad9"></circle><circle r="5" cx="706.29" cy="394.72" fill="#8b9ad9"></circle><circle r="5" cx="699.76" cy="516.36" fill="#8b9ad9"></circle><circle r="5" cx="642.75" cy="648.42" fill="#8b9ad9"></circle><circle r="5" cx="805.24" cy="400.94" fill="#8b9ad9"></circle><circle r="5" cx="797.37" cy="560.79" fill="#8b9ad9"></circle><circle r="5" cx="818.6" cy="657.49" fill="#8b9ad9"></circle><circle r="5" cx="956.17" cy="358.59" fill="#8b9ad9"></circle><circle r="5" cx="1001.59" cy="662.71" fill="#8b9ad9"></circle><circle r="5" cx="1125.64" cy="250.82" fill="#8b9ad9"></circle><circle r="5" cx="1145.63" cy="376.28" fill="#8b9ad9"></circle><circle r="5" cx="1134.48" cy="531.76" fill="#8b9ad9"></circle><circle r="5" cx="1304.87" cy="-62.51" fill="#8b9ad9"></circle><circle r="5" cx="1302.98" cy="200.42" fill="#8b9ad9"></circle><circle r="5" cx="1261.71" cy="380.91" fill="#8b9ad9"></circle><circle r="5" cx="1254.85" cy="507.09" fill="#8b9ad9"></circle><circle r="5" cx="1282.16" cy="704.98" fill="#8b9ad9"></circle><circle r="5" cx="1443.22" cy="506.7" fill="#8b9ad9"></circle><circle r="5" cx="1549.37" cy="88.89" fill="#8b9ad9"></circle><circle r="5" cx="1583.19" cy="205.57" fill="#8b9ad9"></circle><circle r="5" cx="1551.64" cy="376.23" fill="#8b9ad9"></circle><circle r="5" cx="1588.2" cy="532.6" fill="#8b9ad9"></circle><circle r="5" cx="1571.18" cy="704.16" fill="#8b9ad9"></circle></g><defs><mask id="SvgjsMask1310"><rect width="1440" height="560" fill="#ffffff"></rect></mask><linearGradient x1="15.28%" y1="139.29%" x2="84.72%" y2="-39.29%" gradientUnits="userSpaceOnUse" id="SvgjsLinearGradient1311"><stop stop-color="#0e2a47" offset="0"></stop><stop stop-color="rgba(0, 69, 158, 0)" offset="1"></stop></linearGradient><radialGradient id="SvgjsRadialGradient1312"><stop stop-color="#ffffff" offset="0.1"></stop><stop stop-color="#1735b3" offset="0.2"></stop><stop stop-color="rgba(23, 53, 179, 0)" offset="1"></stop></radialGradient></defs></svg>