<svg xmlns="http://www.w3.org/2000/svg" version="1.1" xmlns:xlink="http://www.w3.org/1999/xlink" xmlns:svgjs="http://svgjs.dev/svgjs" width="1440" height="560" preserveAspectRatio="none" viewBox="0 0 1440 560"><g mask="url(&quot;#SvgjsMask1009&quot;)" fill="none"><rect width="1440" height="560" x="0" y="0" fill="rgba(16, 16, 28, 0.26)"></rect><path d="M0 0L625.17 0L0 132.19z" fill="rgba(255, 255, 255, .1)"></path><path d="M0 132.19L625.17 0L800.41 0L0 364.93z" fill="rgba(255, 255, 255, .075)"></path><path d="M0 364.93L800.41 0L1144.13 0L0 388.14z" fill="rgba(255, 255, 255, .05)"></path><path d="M0 388.14L1144.13 0L1189.5300000000002 0L0 502.06z" fill="rgba(255, 255, 255, .025)"></path><path d="M1440 560L805.89 560L1440 442.73z" fill="rgba(0, 0, 0, .1)"></path><path d="M1440 442.73L805.89 560L481.28 560L1440 348.25z" fill="rgba(0, 0, 0, .075)"></path><path d="M1440 348.25L481.28 560L476.03999999999996 560L1440 225.22z" fill="rgba(0, 0, 0, .05)"></path><path d="M1440 225.22000000000003L476.03999999999996 560L446.35999999999996 560L1440 161.57000000000002z" fill="rgba(0, 0, 0, .025)"></path></g><defs><mask id="SvgjsMask1009"><rect width="1440" height="560" fill="#ffffff"></rect></mask></defs></svg>